# xmcd CD database file
#
# Track frame offsets:
#	150
#	16207
#	29122
#	44747
#	57480
#	71052
#	87640
#	109130
#	124287
#	142900
#	153497
#	171480
#	184707
#	209822
#	226842
#
# Disc length: 3264 seconds
#
# Revision: 0
# Processed by: cddbd v1.5.2PL0 Copyright (c) Steve Scherf et al.
# Submitted via: CDex 1.51
#
DISCID=e80cbe0f
DTITLE=Ramblin' Dan - Like All Living Things
DYEAR=1995
DGENRE=Country
TTITLE0=Woman On Fire
TTITLE1=Ropers and Wranglers
TTITLE2=Alone Too Long
TTITLE3=Hot Temper, Cold Shoulder
TTITLE4=Too Much To Do
TTITLE5=Oh My Gosh
TTITLE6=Why Oh Why
TTITLE7=Dream About 'Cha
TTITLE8=Bible Train
TTITLE9=Get On Up
TTITLE10=Like All Living Things
TTITLE11=I'm Alive
TTITLE12=In the Morning
TTITLE13=Tobacco and Wine
TTITLE14=Home For The Holidays
EXTD=YEAR: 1995
EXTT0=
EXTT1=
EXTT2=
EXTT3=
EXTT4=
EXTT5=
EXTT6=
EXTT7=
EXTT8=
EXTT9=
EXTT10=
EXTT11=
EXTT12=
EXTT13=
EXTT14=
PLAYORDER=
